<?xml version="1.0" standalone="no"?>
<!DOCTYPE svg PUBLIC "-//W3C//DTD SVG 20010904//EN"
 "http://www.w3.org/TR/2001/REC-SVG-20010904/DTD/svg10.dtd">
<svg version="1.0" xmlns="http://www.w3.org/2000/svg"
 width="700.000000pt" height="700.000000pt" viewBox="0 0 700.000000 700.000000"
 preserveAspectRatio="xMidYMid meet">
<metadata>
Created by potrace 1.14, written by Peter Selinger 2001-2017
</metadata>
<g transform="translate(0.000000,700.000000) scale(0.100000,-0.100000)"
fill="#000000" stroke="none">
<path d="M3427 6994 c-1 -1 -64 -4 -139 -8 -75 -3 -143 -8 -150 -10 -7 -3 -42
-7 -78 -11 -171 -16 -470 -85 -685 -158 -722 -245 -1360 -734 -1775 -1362 -40
-60 -81 -122 -91 -137 -11 -15 -19 -29 -19 -32 0 -3 -14 -29 -31 -58 -178
-299 -361 -816 -404 -1138 -2 -14 -10 -74 -19 -135 -38 -277 -38 -636 0 -895
2 -19 9 -65 14 -101 5 -36 12 -72 14 -80 3 -8 8 -30 11 -49 4 -30 40 -187 49
-215 1 -5 6 -23 10 -40 14 -54 78 -248 108 -325 154 -395 395 -786 668 -1084
75 -82 215 -220 274 -270 27 -22 56 -48 65 -57 35 -35 202 -160 301 -226 300
-200 596 -341 934 -444 54 -17 106 -32 115 -35 9 -2 34 -8 56 -14 70 -18 206
-45 275 -55 19 -3 44 -8 56 -10 42 -9 155 -22 269 -31 82 -7 427 -6 495 0 30
3 82 8 115 12 62 6 68 6 175 24 117 18 232 41 305 61 22 5 58 15 80 20 71 17
227 70 360 122 529 206 1031 567 1390 1001 22 27 52 63 66 80 70 84 191 261
277 406 139 235 292 602 357 860 10 36 19 72 21 80 15 60 38 173 49 245 2 11
6 34 9 50 33 187 49 578 32 765 -4 36 -9 92 -12 125 -3 33 -9 85 -14 115 -5
30 -12 73 -15 95 -21 150 -112 506 -146 567 -5 10 -9 27 -9 37 0 11 -4 22 -9
25 -5 3 -12 17 -15 31 -7 29 -88 220 -118 280 -11 22 -32 63 -45 90 -64 127
-221 380 -300 480 -13 17 -27 35 -31 40 -58 79 -101 130 -197 234 -401 440
-925 778 -1485 959 -127 41 -261 78 -315 88 -16 2 -43 9 -60 14 -36 11 -198
37 -278 45 -32 4 -68 8 -80 11 -42 8 -422 24 -430 18z"/>
</g>
</svg>
